<?xml version="1.0" standalone="no"?><!DOCTYPE svg PUBLIC "-//W3C//DTD SVG 1.1//EN" "http://www.w3.org/Graphics/SVG/1.1/DTD/svg11.dtd"><svg t="1658690355604" class="icon" viewBox="0 0 1024 1024" version="1.1" xmlns="http://www.w3.org/2000/svg" p-id="2862" xmlns:xlink="http://www.w3.org/1999/xlink" width="200" height="200"><defs><style type="text/css"></style></defs><path d="M512.511 21.483c-271.163 0-491.028 219.86-491.028 491.028 0 271.173 219.856 491.03 491.028 491.03 26.554 0 48.08-21.527 48.08-48.08 0-26.554-21.526-48.08-48.08-48.08-218.065 0-394.869-176.804-394.869-394.87 0-218.06 176.813-394.869 394.87-394.869 218.065 0 394.869 176.804 394.869 394.87 0 26.553 21.526 48.08 48.08 48.08 26.553 0 48.08-21.527 48.08-48.08 0-271.173-219.857-491.03-491.03-491.03z" p-id="2863"></path></svg>